HIERARCHY
ROOT hip
{
  OFFSET 0.0 0.0 0.0
  CHANNELS 6 Xposition Yposition Zposition Zrotation Yrotation Xrotation
  JOINT torso
  {
    OFFSET 0.0 0.0 0.0
    CHANNELS 3 Zrotation Xrotation Yrotation
    JOINT neck
    {
      OFFSET -20.11218299999996 327.95800799999995 66.30578600000035
      CHANNELS 3 Zrotation Xrotation Yrotation
      JOINT head
      {
        OFFSET 18.28939800000012 288.83178699999996 217.81652800000006
        CHANNELS 3 Zrotation Xrotation Yrotation
        End Site
        {
          OFFSET 0.0 0.0 0.0
        }
      }
    }
    JOINT left_collar
    {
      OFFSET -20.11218299999996 327.95800799999995 66.30578600000035
      CHANNELS 3 Zrotation Xrotation Yrotation
      JOINT left_upper_arm
      {
        OFFSET -127.08163400000001 -16.17407199999991 15.44799799999987
        CHANNELS 3 Zrotation Xrotation Yrotation
        JOINT left_forearm
        {
          OFFSET -234.267792 45.78796399999999 109.31286600000021
          CHANNELS 3 Zrotation Xrotation Yrotation
          JOINT left_hand
          {
            OFFSET -259.114014 -33.25433399999997 16.18847699999992
            CHANNELS 3 Zrotation Xrotation Yrotation
            End Site
            {
              OFFSET 0.0 0.0 0.0
            }
          }
        }
      }
    }
    JOINT right_collar
    {
      OFFSET -20.11218299999996 327.95800799999995 66.30578600000035
      CHANNELS 3 Zrotation Xrotation Yrotation
      JOINT right_upper_arm
      {
        OFFSET 164.513184 1.5733030000000099 4.892333999999892
        CHANNELS 3 Zrotation Xrotation Yrotation
        JOINT right_forearm
        {
          OFFSET 260.742027 48.718444999999974 144.35229500000014
          CHANNELS 3 Zrotation Xrotation Yrotation
          JOINT right_hand
          {
            OFFSET 287.85150899999996 -44.57171600000015 13.96813899999961
            CHANNELS 3 Zrotation Xrotation Yrotation
            End Site
            {
              OFFSET 0.0 0.0 0.0
            }
          }
        }
      }
    }
  }
}
MOTION
Frames: 11
Frame Time: 0.01
-327.5960317007659 254.69716559865847 1395.539172358916 0.3896013613998436 -0.7759405877772981 4.3832223467501175 1.0591723017445558 -0.4173260088664562 -0.243555760244137 1.6082460756156718 -17.707235786049168 -0.29790516193310557 0.0 0.0 0.0 1.2615611636211437 0.39212732185852295 -1.7173947978710657 70.35542506051567 16.216750939979498 32.30580286128073 4.528108079721188 0.6075562288589804 -1.9107726777151681 0.0 0.0 0.0 -0.2758260022039202 -0.03466676763386989 5.97756205552279 -58.53858198782214 20.547086657052393 -26.14413826519247 -19.02233787447083 -0.9246003489037337 -5.685726942733056 0.0 0.0 0.0
-328.9856254024911 254.57493229786417 1394.933983476524 0.46018068162489106 -0.7932779613465144 4.515663733484922 1.0720810332770359 -0.3955120984364142 -0.24468191327031694 1.5855780814317024 -17.804296017105777 -0.2749018253187873 0.0 0.0 0.0 1.2753295251519619 0.3876966776430776 -1.6720014768944986 70.27641211755332 16.221214880722638 32.26820278290277 4.512480226438515 0.5973243162301654 -1.85771043686578 0.0 0.0 0.0 -0.2757812143721704 -0.03484263250766965 6.001489130288601 -58.54824237779916 20.544009527394635 -26.159289997496376 -18.997503350354904 -0.9384552933588328 -5.727861348333549 0.0 0.0 0.0
-330.4055149087062 254.4536703062932 1394.3185489698055 0.532130847273506 -0.809864772048273 4.650713439791807 1.0849238145186084 -0.3735596717305319 -0.2457799585588631 1.5614863340522902 -17.903925767409163 -0.2506085563728427 0.0 0.0 0.0 1.289693320712102 0.3830060947828754 -1.624235761227946 70.19764084740783 16.22585598347045 32.23021040012439 4.495566337354253 0.5870972537819398 -1.8051890446623495 0.0 0.0 0.0 -0.27551045867139945 -0.03505455065384167 6.027831262812762 -58.55632315320307 20.540096811755408 -26.175372072687555 -18.973464955959052 -0.9529173765451556 -5.7718885593325 0.0 0.0 0.0
-331.8629260185763 254.3325045293664 1393.6898155537733 0.6060801378291871 -0.8260733608141131 4.789013063648019 1.0975776452647268 -0.3512001958996659 -0.2468056988277685 1.5358905862247492 -18.0062921303055 -0.22495050651890258 0.0 0.0 0.0 1.3048034482786184 0.3780711067768263 -1.5740730401953777 70.11868995404495 16.230567446729513 32.19189542419797 4.477568603907851 0.5769987738899464 -1.7538375996242372 0.0 0.0 0.0 -0.27518026231398074 -0.03528872252111529 6.056561830706031 -58.562324375664204 20.5353265545371 -26.19206425840575 -18.95083897586555 -0.9678669438296147 -5.817439660557651 0.0 0.0 0.0
-333.36521786258976 254.21036719565285 1393.0446363309454 0.6826870510165194 -0.8423484032744823 4.931177032254073 1.1099107041474177 -0.3281653672012601 -0.2477131163215173 1.5087289220506637 -18.111524467534338 -0.19786934556654528 0.0 0.0 0.0 1.3207547623762128 0.3729068419768463 -1.5215428877667647 70.03910629298696 16.235230120959333 32.153341341013885 4.458763889343787 0.5671574859150252 -1.704284510254846 0.0 0.0 0.0 -0.2749458379985796 -0.03553200621299948 6.087636410868011 -58.565774633318384 20.529691335848696 -26.209031948588063 -18.930275472524066 -0.9831489488158411 -5.864033325776723 0.0 0.0 0.0
-334.91947534225744 254.08602292094858 1392.3799248210232 0.7626137088587502 -0.8591999326412226 5.077750886908807 1.1217844901379128 -0.3041991060750171 -0.24845567943930713 1.4799663299857149 -18.219693084702616 -0.16933128294874453 0.0 0.0 0.0 1.3375738389097969 0.36752890554362266 -1.466746201923246 69.95842414326403 16.23971345286135 32.11465044437666 4.439506317172009 0.5577048169146392 -1.6571451724975335 0.0 0.0 0.0 -0.2749442644815382 -0.035772432945471444 6.120987958256794 -58.56624875212983 20.523199820739627 -26.225935426442806 -18.912445873086106 -0.9985703704631046 -5.911067571571315 0.0 0.0 0.0
-336.5321023061928 253.95809817936188 1391.6928013085187 0.8465000161191517 -0.87719525220824 5.229171438694434 1.1330558317909125 -0.27906883582436365 -0.24898758291793044 1.4496031059892907 -18.33078857710449 -0.13933494773617477 0.0 0.0 0.0 1.355209980479475 0.3619546511907416 -1.4098714701917898 69.87618289023611 16.24387740497506 32.07594638801762 4.420226609151283 0.5487727170461506 -1.6130093809788795 0.0 0.0 0.0 -0.2752888609414227 -0.035999617756926096 6.1565188145976775 -58.56338538881237 20.515878874387145 -26.242437471700974 -18.898028584772423 -1.0138986258737428 -5.957814945261325 0.0 0.0 0.0
-338.2084325321339 253.82511447213557 1390.980724125246 0.9349397701100759 -0.8969499001849027 5.385730562692013 1.1435785936069947 -0.25257557385605756 -0.24926485164867151 1.4176827509943004 -18.444702907409226 -0.10791880627317545 0.0 0.0 0.0 1.3735302731041275 0.35620482503605566 -1.3512093094932613 69.79194223842266 16.24757542430085 32.03737375064881 4.401427539304693 0.5404911651336607 -1.5724288337007557 0.0 0.0 0.0 -0.2760651295007269 -0.036205035301820364 6.194089587559325 -58.55690381452367 20.507776251153587 -26.258208789788206 -18.88769271501207 -1.0288611463839983 -6.003421792195937 0.0 0.0 0.0
-339.9523750529451 253.68552450400855 1390.2415991365062 1.028459765318869 -0.9191177660847241 5.547544272474951 1.1532049654588667 -0.22456241159400087 -0.2492462522295132 1.3842990614597335 -18.56121336423856 -0.0751678183044583 0.0 0.0 0.0 1.3923193698671756 0.3503055506009741 -1.291164542180029 69.7052942036856 16.25065841044038 31.999094400079116 4.383675009630995 0.5329855274309647 -1.5359051616675676 0.0 0.0 0.0 -0.27732861204077447 -0.036382134094390735 6.233505328674998 -58.546619097037755 20.498963746718243 -26.272930974795788 -18.882080061161304 -1.0431462483988485 -6.046912117108989 0.0 0.0 0.0
-341.7661091067597 253.53775071683904 1389.473861703249 1.127502699967116 -0.9443803835024758 5.714528494227836 1.1617863285024699 -0.19492104910981883 -0.24889398403227156 1.349602117779841 -18.67997056611604 -0.041219033908058735 0.0 0.0 0.0 1.4112844027860256 0.34429058742445107 -1.2302651555095965 69.6158713428911 16.252979517314706 31.961280751614066 4.3675845152852375 0.5263738369324712 -1.5038789328808297 0.0 0.0 0.0 -0.27910490620748285 -0.036526272076238694 6.274499838706229 -58.53245486082541 20.489540579902812 -26.2862970143624 -18.881785699907507 -1.056405401025536 -6.087196421904256 0.0 0.0 0.0
-343.64984193188394 253.38022557816632 1388.6765267587127 1.232414389222344 -0.9734353390521777 5.886382621658237 1.1691738328435834 -0.16359619374142534 -0.24817416022944921 1.3138028495753442 -18.800491591906223 -0.0062658130675980256 0.0 0.0 0.0 1.4300650206482532 0.3382037342879272 -1.1691675126777616 69.52335098446343 16.25439953053382 31.92410631403521 4.353803120080561 0.5207640707993241 -1.4767200508030707 0.0 0.0 0.0 -0.2813919118715086 -0.036634471813667725 6.316719318321948 -58.514452855785876 20.479636654132605 -26.29800968332799 -18.887337734569833 -1.0682569618317541 -6.123085742373264 0.0 0.0 0.0
